<mxfile host="app.diagrams.net" agent="Mozilla/5.0 (Windows NT 10.0; Win64; x64) AppleWebKit/537.36 (KHTML, like Gecko) Chrome/137.0.0.0 Safari/537.36" version="25.0.3">
  <diagram id="C5RBs43oDa-KdzZeNtuy" name="Page-1">
    <mxGraphModel dx="1221" dy="725" grid="1" gridSize="10" guides="1" tooltips="1" connect="1" arrows="1" fold="1" page="1" pageScale="1" pageWidth="827" pageHeight="1169" math="0" shadow="0">
      <root>
        <mxCell id="WIyWlLk6GJQsqaUBKTNV-0" />
        <mxCell id="WIyWlLk6GJQsqaUBKTNV-1" parent="WIyWlLk6GJQsqaUBKTNV-0" />
        <mxCell id="WIyWlLk6GJQsqaUBKTNV-2" value="" style="rounded=0;html=1;jettySize=auto;orthogonalLoop=1;fontSize=11;endArrow=block;endFill=0;endSize=8;strokeWidth=1;shadow=0;labelBackgroundColor=none;edgeStyle=orthogonalEdgeStyle;" parent="WIyWlLk6GJQsqaUBKTNV-1" source="WIyWlLk6GJQsqaUBKTNV-3" target="WIyWlLk6GJQsqaUBKTNV-6" edge="1">
          <mxGeometry relative="1" as="geometry" />
        </mxCell>
        <mxCell id="WIyWlLk6GJQsqaUBKTNV-3" value="Lamp doesn&#39;t work" style="rounded=1;whiteSpace=wrap;html=1;fontSize=12;glass=0;strokeWidth=1;shadow=0;" parent="WIyWlLk6GJQsqaUBKTNV-1" vertex="1">
          <mxGeometry x="160" y="80" width="120" height="40" as="geometry" />
        </mxCell>
        <mxCell id="WIyWlLk6GJQsqaUBKTNV-4" value="Yes" style="rounded=0;html=1;jettySize=auto;orthogonalLoop=1;fontSize=11;endArrow=block;endFill=0;endSize=8;strokeWidth=1;shadow=0;labelBackgroundColor=none;edgeStyle=orthogonalEdgeStyle;" parent="WIyWlLk6GJQsqaUBKTNV-1" source="WIyWlLk6GJQsqaUBKTNV-6" target="WIyWlLk6GJQsqaUBKTNV-10" edge="1">
          <mxGeometry y="20" relative="1" as="geometry">
            <mxPoint as="offset" />
          </mxGeometry>
        </mxCell>
        <mxCell id="WIyWlLk6GJQsqaUBKTNV-5" value="No" style="edgeStyle=orthogonalEdgeStyle;rounded=0;html=1;jettySize=auto;orthogonalLoop=1;fontSize=11;endArrow=block;endFill=0;endSize=8;strokeWidth=1;shadow=0;labelBackgroundColor=none;" parent="WIyWlLk6GJQsqaUBKTNV-1" source="WIyWlLk6GJQsqaUBKTNV-6" target="WIyWlLk6GJQsqaUBKTNV-7" edge="1">
          <mxGeometry y="10" relative="1" as="geometry">
            <mxPoint as="offset" />
          </mxGeometry>
        </mxCell>
        <mxCell id="WIyWlLk6GJQsqaUBKTNV-6" value="Lamp&lt;br&gt;plugged in?" style="rhombus;whiteSpace=wrap;html=1;shadow=0;fontFamily=Helvetica;fontSize=12;align=center;strokeWidth=1;spacing=6;spacingTop=-4;" parent="WIyWlLk6GJQsqaUBKTNV-1" vertex="1">
          <mxGeometry x="170" y="170" width="100" height="80" as="geometry" />
        </mxCell>
        <mxCell id="WIyWlLk6GJQsqaUBKTNV-7" value="Plug in lamp" style="rounded=1;whiteSpace=wrap;html=1;fontSize=12;glass=0;strokeWidth=1;shadow=0;" parent="WIyWlLk6GJQsqaUBKTNV-1" vertex="1">
          <mxGeometry x="320" y="190" width="120" height="40" as="geometry" />
        </mxCell>
        <mxCell id="WIyWlLk6GJQsqaUBKTNV-8" value="No" style="rounded=0;html=1;jettySize=auto;orthogonalLoop=1;fontSize=11;endArrow=block;endFill=0;endSize=8;strokeWidth=1;shadow=0;labelBackgroundColor=none;edgeStyle=orthogonalEdgeStyle;" parent="WIyWlLk6GJQsqaUBKTNV-1" source="WIyWlLk6GJQsqaUBKTNV-10" target="WIyWlLk6GJQsqaUBKTNV-11" edge="1">
          <mxGeometry x="0.3333" y="20" relative="1" as="geometry">
            <mxPoint as="offset" />
          </mxGeometry>
        </mxCell>
        <mxCell id="WIyWlLk6GJQsqaUBKTNV-9" value="Yes" style="edgeStyle=orthogonalEdgeStyle;rounded=0;html=1;jettySize=auto;orthogonalLoop=1;fontSize=11;endArrow=block;endFill=0;endSize=8;strokeWidth=1;shadow=0;labelBackgroundColor=none;" parent="WIyWlLk6GJQsqaUBKTNV-1" source="WIyWlLk6GJQsqaUBKTNV-10" target="WIyWlLk6GJQsqaUBKTNV-12" edge="1">
          <mxGeometry y="10" relative="1" as="geometry">
            <mxPoint as="offset" />
          </mxGeometry>
        </mxCell>
        <mxCell id="WIyWlLk6GJQsqaUBKTNV-10" value="Bulb&lt;br&gt;burned out?" style="rhombus;whiteSpace=wrap;html=1;shadow=0;fontFamily=Helvetica;fontSize=12;align=center;strokeWidth=1;spacing=6;spacingTop=-4;" parent="WIyWlLk6GJQsqaUBKTNV-1" vertex="1">
          <mxGeometry x="170" y="290" width="100" height="80" as="geometry" />
        </mxCell>
        <mxCell id="WIyWlLk6GJQsqaUBKTNV-11" value="Repair Lamp" style="rounded=1;whiteSpace=wrap;html=1;fontSize=12;glass=0;strokeWidth=1;shadow=0;" parent="WIyWlLk6GJQsqaUBKTNV-1" vertex="1">
          <mxGeometry x="160" y="430" width="120" height="40" as="geometry" />
        </mxCell>
        <mxCell id="WIyWlLk6GJQsqaUBKTNV-12" value="Replace Bulb" style="rounded=1;whiteSpace=wrap;html=1;fontSize=12;glass=0;strokeWidth=1;shadow=0;" parent="WIyWlLk6GJQsqaUBKTNV-1" vertex="1">
          <mxGeometry x="320" y="310" width="120" height="40" as="geometry" />
        </mxCell>
        <mxCell id="DycRKEXBZWf3Ip3RqUIx-0" value="系统启动" style="rounded=1;arcSize=40;strokeWidth=2" vertex="1" parent="WIyWlLk6GJQsqaUBKTNV-1">
          <mxGeometry x="160" y="1717" width="94" height="49" as="geometry" />
        </mxCell>
        <mxCell id="DycRKEXBZWf3Ip3RqUIx-1" value="登录界面" style="rounded=1;arcSize=40;strokeWidth=2" vertex="1" parent="WIyWlLk6GJQsqaUBKTNV-1">
          <mxGeometry x="304" y="1717" width="94" height="49" as="geometry" />
        </mxCell>
        <mxCell id="DycRKEXBZWf3Ip3RqUIx-2" value="登录验证" style="rhombus;strokeWidth=2;whiteSpace=wrap;" vertex="1" parent="WIyWlLk6GJQsqaUBKTNV-1">
          <mxGeometry x="484" y="1685" width="113" height="113" as="geometry" />
        </mxCell>
        <mxCell id="DycRKEXBZWf3Ip3RqUIx-3" value="主页面" style="rounded=1;arcSize=40;strokeWidth=2" vertex="1" parent="WIyWlLk6GJQsqaUBKTNV-1">
          <mxGeometry x="683" y="1717" width="78" height="49" as="geometry" />
        </mxCell>
        <mxCell id="DycRKEXBZWf3Ip3RqUIx-4" value="发表论文情况模块" style="rounded=1;arcSize=40;strokeWidth=2" vertex="1" parent="WIyWlLk6GJQsqaUBKTNV-1">
          <mxGeometry x="811" y="735" width="158" height="49" as="geometry" />
        </mxCell>
        <mxCell id="DycRKEXBZWf3Ip3RqUIx-5" value="承担项目情况模块" style="rounded=1;arcSize=40;strokeWidth=2" vertex="1" parent="WIyWlLk6GJQsqaUBKTNV-1">
          <mxGeometry x="811" y="1226" width="158" height="49" as="geometry" />
        </mxCell>
        <mxCell id="DycRKEXBZWf3Ip3RqUIx-6" value="主讲课程情况模块" style="rounded=1;arcSize=40;strokeWidth=2" vertex="1" parent="WIyWlLk6GJQsqaUBKTNV-1">
          <mxGeometry x="811" y="1717" width="158" height="49" as="geometry" />
        </mxCell>
        <mxCell id="DycRKEXBZWf3Ip3RqUIx-7" value="查询统计模块" style="rounded=1;arcSize=40;strokeWidth=2" vertex="1" parent="WIyWlLk6GJQsqaUBKTNV-1">
          <mxGeometry x="827" y="1963" width="126" height="49" as="geometry" />
        </mxCell>
        <mxCell id="DycRKEXBZWf3Ip3RqUIx-8" value="查看数据表模块" style="rounded=1;arcSize=40;strokeWidth=2" vertex="1" parent="WIyWlLk6GJQsqaUBKTNV-1">
          <mxGeometry x="819" y="2062" width="142" height="49" as="geometry" />
        </mxCell>
        <mxCell id="DycRKEXBZWf3Ip3RqUIx-9" value="论文添加子模块" style="rounded=1;arcSize=40;strokeWidth=2" vertex="1" parent="WIyWlLk6GJQsqaUBKTNV-1">
          <mxGeometry x="1019" y="539" width="142" height="49" as="geometry" />
        </mxCell>
        <mxCell id="DycRKEXBZWf3Ip3RqUIx-10" value="论文删除子模块" style="rounded=1;arcSize=40;strokeWidth=2" vertex="1" parent="WIyWlLk6GJQsqaUBKTNV-1">
          <mxGeometry x="1019" y="686" width="142" height="49" as="geometry" />
        </mxCell>
        <mxCell id="DycRKEXBZWf3Ip3RqUIx-11" value="论文修改子模块" style="rounded=1;arcSize=40;strokeWidth=2" vertex="1" parent="WIyWlLk6GJQsqaUBKTNV-1">
          <mxGeometry x="1019" y="785" width="142" height="49" as="geometry" />
        </mxCell>
        <mxCell id="DycRKEXBZWf3Ip3RqUIx-12" value="论文查询子模块" style="rounded=1;arcSize=40;strokeWidth=2" vertex="1" parent="WIyWlLk6GJQsqaUBKTNV-1">
          <mxGeometry x="1019" y="883" width="142" height="49" as="geometry" />
        </mxCell>
        <mxCell id="DycRKEXBZWf3Ip3RqUIx-13" value="项目添加子模块" style="rounded=1;arcSize=40;strokeWidth=2" vertex="1" parent="WIyWlLk6GJQsqaUBKTNV-1">
          <mxGeometry x="1019" y="1030" width="142" height="49" as="geometry" />
        </mxCell>
        <mxCell id="DycRKEXBZWf3Ip3RqUIx-14" value="项目删除子模块" style="rounded=1;arcSize=40;strokeWidth=2" vertex="1" parent="WIyWlLk6GJQsqaUBKTNV-1">
          <mxGeometry x="1019" y="1177" width="142" height="49" as="geometry" />
        </mxCell>
        <mxCell id="DycRKEXBZWf3Ip3RqUIx-15" value="项目修改子模块" style="rounded=1;arcSize=40;strokeWidth=2" vertex="1" parent="WIyWlLk6GJQsqaUBKTNV-1">
          <mxGeometry x="1019" y="1275" width="142" height="49" as="geometry" />
        </mxCell>
        <mxCell id="DycRKEXBZWf3Ip3RqUIx-16" value="项目查询子模块" style="rounded=1;arcSize=40;strokeWidth=2" vertex="1" parent="WIyWlLk6GJQsqaUBKTNV-1">
          <mxGeometry x="1019" y="1374" width="142" height="49" as="geometry" />
        </mxCell>
        <mxCell id="DycRKEXBZWf3Ip3RqUIx-17" value="课程添加子模块" style="rounded=1;arcSize=40;strokeWidth=2" vertex="1" parent="WIyWlLk6GJQsqaUBKTNV-1">
          <mxGeometry x="1019" y="1521" width="142" height="49" as="geometry" />
        </mxCell>
        <mxCell id="DycRKEXBZWf3Ip3RqUIx-18" value="课程删除子模块" style="rounded=1;arcSize=40;strokeWidth=2" vertex="1" parent="WIyWlLk6GJQsqaUBKTNV-1">
          <mxGeometry x="1019" y="1667" width="142" height="49" as="geometry" />
        </mxCell>
        <mxCell id="DycRKEXBZWf3Ip3RqUIx-19" value="课程修改子模块" style="rounded=1;arcSize=40;strokeWidth=2" vertex="1" parent="WIyWlLk6GJQsqaUBKTNV-1">
          <mxGeometry x="1019" y="1766" width="142" height="49" as="geometry" />
        </mxCell>
        <mxCell id="DycRKEXBZWf3Ip3RqUIx-20" value="课程查询子模块" style="rounded=1;arcSize=40;strokeWidth=2" vertex="1" parent="WIyWlLk6GJQsqaUBKTNV-1">
          <mxGeometry x="1019" y="1865" width="142" height="49" as="geometry" />
        </mxCell>
        <mxCell id="DycRKEXBZWf3Ip3RqUIx-21" value="输入年份范围" style="rounded=1;arcSize=40;strokeWidth=2" vertex="1" parent="WIyWlLk6GJQsqaUBKTNV-1">
          <mxGeometry x="1027" y="1963" width="126" height="49" as="geometry" />
        </mxCell>
        <mxCell id="DycRKEXBZWf3Ip3RqUIx-22" value="查询统计结果" style="rounded=1;arcSize=40;strokeWidth=2" vertex="1" parent="WIyWlLk6GJQsqaUBKTNV-1">
          <mxGeometry x="1220" y="1963" width="126" height="49" as="geometry" />
        </mxCell>
        <mxCell id="DycRKEXBZWf3Ip3RqUIx-23" value="结果展示" style="rounded=1;arcSize=40;strokeWidth=2" vertex="1" parent="WIyWlLk6GJQsqaUBKTNV-1">
          <mxGeometry x="1457" y="1963" width="94" height="49" as="geometry" />
        </mxCell>
        <mxCell id="DycRKEXBZWf3Ip3RqUIx-24" value="是否导出" style="rhombus;strokeWidth=2;whiteSpace=wrap;" vertex="1" parent="WIyWlLk6GJQsqaUBKTNV-1">
          <mxGeometry x="1653" y="1931" width="113" height="113" as="geometry" />
        </mxCell>
        <mxCell id="DycRKEXBZWf3Ip3RqUIx-25" value="导出为 Word 文档" style="rounded=1;arcSize=40;strokeWidth=2" vertex="1" parent="WIyWlLk6GJQsqaUBKTNV-1">
          <mxGeometry x="1836" y="1963" width="156" height="49" as="geometry" />
        </mxCell>
        <mxCell id="DycRKEXBZWf3Ip3RqUIx-26" value="选择数据表" style="rounded=1;arcSize=40;strokeWidth=2" vertex="1" parent="WIyWlLk6GJQsqaUBKTNV-1">
          <mxGeometry x="1035" y="2062" width="110" height="49" as="geometry" />
        </mxCell>
        <mxCell id="DycRKEXBZWf3Ip3RqUIx-27" value="查看表数据" style="rounded=1;arcSize=40;strokeWidth=2" vertex="1" parent="WIyWlLk6GJQsqaUBKTNV-1">
          <mxGeometry x="1228" y="2062" width="110" height="49" as="geometry" />
        </mxCell>
        <mxCell id="DycRKEXBZWf3Ip3RqUIx-28" value="论文是否存在" style="rhombus;strokeWidth=2;whiteSpace=wrap;" vertex="1" parent="WIyWlLk6GJQsqaUBKTNV-1">
          <mxGeometry x="1211" y="491" width="145" height="145" as="geometry" />
        </mxCell>
        <mxCell id="DycRKEXBZWf3Ip3RqUIx-29" value="登记论文" style="rounded=1;arcSize=40;strokeWidth=2" vertex="1" parent="WIyWlLk6GJQsqaUBKTNV-1">
          <mxGeometry x="1457" y="490" width="94" height="49" as="geometry" />
        </mxCell>
        <mxCell id="DycRKEXBZWf3Ip3RqUIx-30" value="添加论文作者信息" style="rounded=1;arcSize=40;strokeWidth=2" vertex="1" parent="WIyWlLk6GJQsqaUBKTNV-1">
          <mxGeometry x="1425" y="735" width="158" height="49" as="geometry" />
        </mxCell>
        <mxCell id="DycRKEXBZWf3Ip3RqUIx-31" value="项目是否存在" style="rhombus;strokeWidth=2;whiteSpace=wrap;" vertex="1" parent="WIyWlLk6GJQsqaUBKTNV-1">
          <mxGeometry x="1211" y="982" width="145" height="145" as="geometry" />
        </mxCell>
        <mxCell id="DycRKEXBZWf3Ip3RqUIx-32" value="登记项目" style="rounded=1;arcSize=40;strokeWidth=2" vertex="1" parent="WIyWlLk6GJQsqaUBKTNV-1">
          <mxGeometry x="1457" y="834" width="94" height="49" as="geometry" />
        </mxCell>
        <mxCell id="DycRKEXBZWf3Ip3RqUIx-33" value="添加项目承担信息" style="rounded=1;arcSize=40;strokeWidth=2" vertex="1" parent="WIyWlLk6GJQsqaUBKTNV-1">
          <mxGeometry x="1425" y="1226" width="158" height="49" as="geometry" />
        </mxCell>
        <mxCell id="DycRKEXBZWf3Ip3RqUIx-34" value="课程是否存在" style="rhombus;strokeWidth=2;whiteSpace=wrap;" vertex="1" parent="WIyWlLk6GJQsqaUBKTNV-1">
          <mxGeometry x="1211" y="1473" width="145" height="145" as="geometry" />
        </mxCell>
        <mxCell id="DycRKEXBZWf3Ip3RqUIx-35" value="登记课程" style="rounded=1;arcSize=40;strokeWidth=2" vertex="1" parent="WIyWlLk6GJQsqaUBKTNV-1">
          <mxGeometry x="1457" y="1325" width="94" height="49" as="geometry" />
        </mxCell>
        <mxCell id="DycRKEXBZWf3Ip3RqUIx-36" value="添加主讲课程信息" style="rounded=1;arcSize=40;strokeWidth=2" vertex="1" parent="WIyWlLk6GJQsqaUBKTNV-1">
          <mxGeometry x="1425" y="1693" width="158" height="49" as="geometry" />
        </mxCell>
        <mxCell id="DycRKEXBZWf3Ip3RqUIx-37" value="删除论文" style="rounded=1;arcSize=40;strokeWidth=2" vertex="1" parent="WIyWlLk6GJQsqaUBKTNV-1">
          <mxGeometry x="1236" y="686" width="94" height="49" as="geometry" />
        </mxCell>
        <mxCell id="DycRKEXBZWf3Ip3RqUIx-38" value="修改论文信息" style="rounded=1;arcSize=40;strokeWidth=2" vertex="1" parent="WIyWlLk6GJQsqaUBKTNV-1">
          <mxGeometry x="1220" y="785" width="126" height="49" as="geometry" />
        </mxCell>
        <mxCell id="DycRKEXBZWf3Ip3RqUIx-39" value="查询论文信息" style="rounded=1;arcSize=40;strokeWidth=2" vertex="1" parent="WIyWlLk6GJQsqaUBKTNV-1">
          <mxGeometry x="1220" y="883" width="126" height="49" as="geometry" />
        </mxCell>
        <mxCell id="DycRKEXBZWf3Ip3RqUIx-40" value="删除项目" style="rounded=1;arcSize=40;strokeWidth=2" vertex="1" parent="WIyWlLk6GJQsqaUBKTNV-1">
          <mxGeometry x="1236" y="1177" width="94" height="49" as="geometry" />
        </mxCell>
        <mxCell id="DycRKEXBZWf3Ip3RqUIx-41" value="修改项目信息" style="rounded=1;arcSize=40;strokeWidth=2" vertex="1" parent="WIyWlLk6GJQsqaUBKTNV-1">
          <mxGeometry x="1220" y="1275" width="126" height="49" as="geometry" />
        </mxCell>
        <mxCell id="DycRKEXBZWf3Ip3RqUIx-42" value="查询项目信息" style="rounded=1;arcSize=40;strokeWidth=2" vertex="1" parent="WIyWlLk6GJQsqaUBKTNV-1">
          <mxGeometry x="1220" y="1374" width="126" height="49" as="geometry" />
        </mxCell>
        <mxCell id="DycRKEXBZWf3Ip3RqUIx-43" value="删除课程" style="rounded=1;arcSize=40;strokeWidth=2" vertex="1" parent="WIyWlLk6GJQsqaUBKTNV-1">
          <mxGeometry x="1236" y="1667" width="94" height="49" as="geometry" />
        </mxCell>
        <mxCell id="DycRKEXBZWf3Ip3RqUIx-44" value="修改课程信息" style="rounded=1;arcSize=40;strokeWidth=2" vertex="1" parent="WIyWlLk6GJQsqaUBKTNV-1">
          <mxGeometry x="1220" y="1766" width="126" height="49" as="geometry" />
        </mxCell>
        <mxCell id="DycRKEXBZWf3Ip3RqUIx-45" value="查询课程信息" style="rounded=1;arcSize=40;strokeWidth=2" vertex="1" parent="WIyWlLk6GJQsqaUBKTNV-1">
          <mxGeometry x="1220" y="1865" width="126" height="49" as="geometry" />
        </mxCell>
        <mxCell id="DycRKEXBZWf3Ip3RqUIx-46" value="" style="curved=1;startArrow=none;endArrow=block;exitX=1;exitY=0.49;entryX=0;entryY=0.49;rounded=0;" edge="1" parent="WIyWlLk6GJQsqaUBKTNV-1" source="DycRKEXBZWf3Ip3RqUIx-0" target="DycRKEXBZWf3Ip3RqUIx-1">
          <mxGeometry relative="1" as="geometry">
            <Array as="points" />
          </mxGeometry>
        </mxCell>
        <mxCell id="DycRKEXBZWf3Ip3RqUIx-47" value="" style="curved=1;startArrow=none;endArrow=block;exitX=1;exitY=0.32;entryX=0;entryY=0.42;rounded=0;" edge="1" parent="WIyWlLk6GJQsqaUBKTNV-1" source="DycRKEXBZWf3Ip3RqUIx-1" target="DycRKEXBZWf3Ip3RqUIx-2">
          <mxGeometry relative="1" as="geometry">
            <Array as="points">
              <mxPoint x="441" y="1725" />
            </Array>
          </mxGeometry>
        </mxCell>
        <mxCell id="DycRKEXBZWf3Ip3RqUIx-48" value="成功" style="curved=1;startArrow=none;endArrow=block;exitX=1;exitY=0.5;entryX=0;entryY=0.49;rounded=0;" edge="1" parent="WIyWlLk6GJQsqaUBKTNV-1" source="DycRKEXBZWf3Ip3RqUIx-2" target="DycRKEXBZWf3Ip3RqUIx-3">
          <mxGeometry relative="1" as="geometry">
            <Array as="points" />
          </mxGeometry>
        </mxCell>
        <mxCell id="DycRKEXBZWf3Ip3RqUIx-49" value="失败" style="curved=1;startArrow=none;endArrow=block;exitX=0;exitY=0.57;entryX=1;entryY=0.66;rounded=0;" edge="1" parent="WIyWlLk6GJQsqaUBKTNV-1" source="DycRKEXBZWf3Ip3RqUIx-2" target="DycRKEXBZWf3Ip3RqUIx-1">
          <mxGeometry relative="1" as="geometry">
            <Array as="points">
              <mxPoint x="441" y="1757" />
            </Array>
          </mxGeometry>
        </mxCell>
        <mxCell id="DycRKEXBZWf3Ip3RqUIx-50" value="" style="curved=1;startArrow=none;endArrow=block;exitX=0.52;exitY=-0.01;entryX=0;entryY=0.5;rounded=0;" edge="1" parent="WIyWlLk6GJQsqaUBKTNV-1" source="DycRKEXBZWf3Ip3RqUIx-3" target="DycRKEXBZWf3Ip3RqUIx-4">
          <mxGeometry relative="1" as="geometry">
            <Array as="points">
              <mxPoint x="786" y="760" />
            </Array>
          </mxGeometry>
        </mxCell>
        <mxCell id="DycRKEXBZWf3Ip3RqUIx-51" value="" style="curved=1;startArrow=none;endArrow=block;exitX=0.54;exitY=-0.01;entryX=0;entryY=0.5;rounded=0;" edge="1" parent="WIyWlLk6GJQsqaUBKTNV-1" source="DycRKEXBZWf3Ip3RqUIx-3" target="DycRKEXBZWf3Ip3RqUIx-5">
          <mxGeometry relative="1" as="geometry">
            <Array as="points">
              <mxPoint x="786" y="1250" />
            </Array>
          </mxGeometry>
        </mxCell>
        <mxCell id="DycRKEXBZWf3Ip3RqUIx-52" value="" style="curved=1;startArrow=none;endArrow=block;exitX=1;exitY=0.49;entryX=0;entryY=0.49;rounded=0;" edge="1" parent="WIyWlLk6GJQsqaUBKTNV-1" source="DycRKEXBZWf3Ip3RqUIx-3" target="DycRKEXBZWf3Ip3RqUIx-6">
          <mxGeometry relative="1" as="geometry">
            <Array as="points" />
          </mxGeometry>
        </mxCell>
        <mxCell id="DycRKEXBZWf3Ip3RqUIx-53" value="" style="curved=1;startArrow=none;endArrow=block;exitX=0.58;exitY=0.99;entryX=0;entryY=0.5;rounded=0;" edge="1" parent="WIyWlLk6GJQsqaUBKTNV-1" source="DycRKEXBZWf3Ip3RqUIx-3" target="DycRKEXBZWf3Ip3RqUIx-7">
          <mxGeometry relative="1" as="geometry">
            <Array as="points">
              <mxPoint x="786" y="1988" />
            </Array>
          </mxGeometry>
        </mxCell>
        <mxCell id="DycRKEXBZWf3Ip3RqUIx-54" value="" style="curved=1;startArrow=none;endArrow=block;exitX=0.55;exitY=0.99;entryX=0;entryY=0.5;rounded=0;" edge="1" parent="WIyWlLk6GJQsqaUBKTNV-1" source="DycRKEXBZWf3Ip3RqUIx-3" target="DycRKEXBZWf3Ip3RqUIx-8">
          <mxGeometry relative="1" as="geometry">
            <Array as="points">
              <mxPoint x="786" y="2086" />
            </Array>
          </mxGeometry>
        </mxCell>
        <mxCell id="DycRKEXBZWf3Ip3RqUIx-55" value="" style="curved=1;startArrow=none;endArrow=block;exitX=0.58;exitY=0.01;entryX=0;entryY=0.5;rounded=0;" edge="1" parent="WIyWlLk6GJQsqaUBKTNV-1" source="DycRKEXBZWf3Ip3RqUIx-4" target="DycRKEXBZWf3Ip3RqUIx-9">
          <mxGeometry relative="1" as="geometry">
            <Array as="points">
              <mxPoint x="994" y="564" />
            </Array>
          </mxGeometry>
        </mxCell>
        <mxCell id="DycRKEXBZWf3Ip3RqUIx-56" value="" style="curved=1;startArrow=none;endArrow=block;exitX=0.82;exitY=0.01;entryX=0;entryY=0.5;rounded=0;" edge="1" parent="WIyWlLk6GJQsqaUBKTNV-1" source="DycRKEXBZWf3Ip3RqUIx-4" target="DycRKEXBZWf3Ip3RqUIx-10">
          <mxGeometry relative="1" as="geometry">
            <Array as="points">
              <mxPoint x="994" y="710" />
            </Array>
          </mxGeometry>
        </mxCell>
        <mxCell id="DycRKEXBZWf3Ip3RqUIx-57" value="" style="curved=1;startArrow=none;endArrow=block;exitX=0.82;exitY=1;entryX=0;entryY=0.49;rounded=0;" edge="1" parent="WIyWlLk6GJQsqaUBKTNV-1" source="DycRKEXBZWf3Ip3RqUIx-4" target="DycRKEXBZWf3Ip3RqUIx-11">
          <mxGeometry relative="1" as="geometry">
            <Array as="points">
              <mxPoint x="994" y="809" />
            </Array>
          </mxGeometry>
        </mxCell>
        <mxCell id="DycRKEXBZWf3Ip3RqUIx-58" value="" style="curved=1;startArrow=none;endArrow=block;exitX=0.61;exitY=1;entryX=0;entryY=0.5;rounded=0;" edge="1" parent="WIyWlLk6GJQsqaUBKTNV-1" source="DycRKEXBZWf3Ip3RqUIx-4" target="DycRKEXBZWf3Ip3RqUIx-12">
          <mxGeometry relative="1" as="geometry">
            <Array as="points">
              <mxPoint x="994" y="908" />
            </Array>
          </mxGeometry>
        </mxCell>
        <mxCell id="DycRKEXBZWf3Ip3RqUIx-59" value="" style="curved=1;startArrow=none;endArrow=block;exitX=0.58;exitY=0;entryX=0;entryY=0.5;rounded=0;" edge="1" parent="WIyWlLk6GJQsqaUBKTNV-1" source="DycRKEXBZWf3Ip3RqUIx-5" target="DycRKEXBZWf3Ip3RqUIx-13">
          <mxGeometry relative="1" as="geometry">
            <Array as="points">
              <mxPoint x="994" y="1054" />
            </Array>
          </mxGeometry>
        </mxCell>
        <mxCell id="DycRKEXBZWf3Ip3RqUIx-60" value="" style="curved=1;startArrow=none;endArrow=block;exitX=0.82;exitY=0;entryX=0;entryY=0.49;rounded=0;" edge="1" parent="WIyWlLk6GJQsqaUBKTNV-1" source="DycRKEXBZWf3Ip3RqUIx-5" target="DycRKEXBZWf3Ip3RqUIx-14">
          <mxGeometry relative="1" as="geometry">
            <Array as="points">
              <mxPoint x="994" y="1201" />
            </Array>
          </mxGeometry>
        </mxCell>
        <mxCell id="DycRKEXBZWf3Ip3RqUIx-61" value="" style="curved=1;startArrow=none;endArrow=block;exitX=0.82;exitY=0.99;entryX=0;entryY=0.5;rounded=0;" edge="1" parent="WIyWlLk6GJQsqaUBKTNV-1" source="DycRKEXBZWf3Ip3RqUIx-5" target="DycRKEXBZWf3Ip3RqUIx-15">
          <mxGeometry relative="1" as="geometry">
            <Array as="points">
              <mxPoint x="994" y="1300" />
            </Array>
          </mxGeometry>
        </mxCell>
        <mxCell id="DycRKEXBZWf3Ip3RqUIx-62" value="" style="curved=1;startArrow=none;endArrow=block;exitX=0.61;exitY=0.99;entryX=0;entryY=0.5;rounded=0;" edge="1" parent="WIyWlLk6GJQsqaUBKTNV-1" source="DycRKEXBZWf3Ip3RqUIx-5" target="DycRKEXBZWf3Ip3RqUIx-16">
          <mxGeometry relative="1" as="geometry">
            <Array as="points">
              <mxPoint x="994" y="1398" />
            </Array>
          </mxGeometry>
        </mxCell>
        <mxCell id="DycRKEXBZWf3Ip3RqUIx-63" value="" style="curved=1;startArrow=none;endArrow=block;exitX=0.58;exitY=-0.01;entryX=0;entryY=0.49;rounded=0;" edge="1" parent="WIyWlLk6GJQsqaUBKTNV-1" source="DycRKEXBZWf3Ip3RqUIx-6" target="DycRKEXBZWf3Ip3RqUIx-17">
          <mxGeometry relative="1" as="geometry">
            <Array as="points">
              <mxPoint x="994" y="1545" />
            </Array>
          </mxGeometry>
        </mxCell>
        <mxCell id="DycRKEXBZWf3Ip3RqUIx-64" value="" style="curved=1;startArrow=none;endArrow=block;exitX=0.82;exitY=-0.01;entryX=0;entryY=0.5;rounded=0;" edge="1" parent="WIyWlLk6GJQsqaUBKTNV-1" source="DycRKEXBZWf3Ip3RqUIx-6" target="DycRKEXBZWf3Ip3RqUIx-18">
          <mxGeometry relative="1" as="geometry">
            <Array as="points">
              <mxPoint x="994" y="1692" />
            </Array>
          </mxGeometry>
        </mxCell>
        <mxCell id="DycRKEXBZWf3Ip3RqUIx-65" value="" style="curved=1;startArrow=none;endArrow=block;exitX=0.82;exitY=0.99;entryX=0;entryY=0.5;rounded=0;" edge="1" parent="WIyWlLk6GJQsqaUBKTNV-1" source="DycRKEXBZWf3Ip3RqUIx-6" target="DycRKEXBZWf3Ip3RqUIx-19">
          <mxGeometry relative="1" as="geometry">
            <Array as="points">
              <mxPoint x="994" y="1790" />
            </Array>
          </mxGeometry>
        </mxCell>
        <mxCell id="DycRKEXBZWf3Ip3RqUIx-66" value="" style="curved=1;startArrow=none;endArrow=block;exitX=0.61;exitY=0.99;entryX=0;entryY=0.49;rounded=0;" edge="1" parent="WIyWlLk6GJQsqaUBKTNV-1" source="DycRKEXBZWf3Ip3RqUIx-6" target="DycRKEXBZWf3Ip3RqUIx-20">
          <mxGeometry relative="1" as="geometry">
            <Array as="points">
              <mxPoint x="994" y="1889" />
            </Array>
          </mxGeometry>
        </mxCell>
        <mxCell id="DycRKEXBZWf3Ip3RqUIx-67" value="" style="curved=1;startArrow=none;endArrow=block;exitX=1;exitY=0.5;entryX=0;entryY=0.5;rounded=0;" edge="1" parent="WIyWlLk6GJQsqaUBKTNV-1" source="DycRKEXBZWf3Ip3RqUIx-7" target="DycRKEXBZWf3Ip3RqUIx-21">
          <mxGeometry relative="1" as="geometry">
            <Array as="points" />
          </mxGeometry>
        </mxCell>
        <mxCell id="DycRKEXBZWf3Ip3RqUIx-68" value="" style="curved=1;startArrow=none;endArrow=block;exitX=1;exitY=0.5;entryX=0;entryY=0.5;rounded=0;" edge="1" parent="WIyWlLk6GJQsqaUBKTNV-1" source="DycRKEXBZWf3Ip3RqUIx-21" target="DycRKEXBZWf3Ip3RqUIx-22">
          <mxGeometry relative="1" as="geometry">
            <Array as="points" />
          </mxGeometry>
        </mxCell>
        <mxCell id="DycRKEXBZWf3Ip3RqUIx-69" value="" style="curved=1;startArrow=none;endArrow=block;exitX=1;exitY=0.5;entryX=0;entryY=0.5;rounded=0;" edge="1" parent="WIyWlLk6GJQsqaUBKTNV-1" source="DycRKEXBZWf3Ip3RqUIx-22" target="DycRKEXBZWf3Ip3RqUIx-23">
          <mxGeometry relative="1" as="geometry">
            <Array as="points" />
          </mxGeometry>
        </mxCell>
        <mxCell id="DycRKEXBZWf3Ip3RqUIx-70" value="" style="curved=1;startArrow=none;endArrow=block;exitX=1;exitY=0.37;entryX=0;entryY=0.42;rounded=0;" edge="1" parent="WIyWlLk6GJQsqaUBKTNV-1" source="DycRKEXBZWf3Ip3RqUIx-23" target="DycRKEXBZWf3Ip3RqUIx-24">
          <mxGeometry relative="1" as="geometry">
            <Array as="points">
              <mxPoint x="1618" y="1972" />
            </Array>
          </mxGeometry>
        </mxCell>
        <mxCell id="DycRKEXBZWf3Ip3RqUIx-71" value="是" style="curved=1;startArrow=none;endArrow=block;exitX=1;exitY=0.5;entryX=0;entryY=0.5;rounded=0;" edge="1" parent="WIyWlLk6GJQsqaUBKTNV-1" source="DycRKEXBZWf3Ip3RqUIx-24" target="DycRKEXBZWf3Ip3RqUIx-25">
          <mxGeometry relative="1" as="geometry">
            <Array as="points" />
          </mxGeometry>
        </mxCell>
        <mxCell id="DycRKEXBZWf3Ip3RqUIx-72" value="否" style="curved=1;startArrow=none;endArrow=block;exitX=0;exitY=0.59;entryX=1;entryY=0.64;rounded=0;" edge="1" parent="WIyWlLk6GJQsqaUBKTNV-1" source="DycRKEXBZWf3Ip3RqUIx-24" target="DycRKEXBZWf3Ip3RqUIx-23">
          <mxGeometry relative="1" as="geometry">
            <Array as="points">
              <mxPoint x="1618" y="2003" />
            </Array>
          </mxGeometry>
        </mxCell>
        <mxCell id="DycRKEXBZWf3Ip3RqUIx-73" value="" style="curved=1;startArrow=none;endArrow=block;exitX=1;exitY=0.5;entryX=0;entryY=0.5;rounded=0;" edge="1" parent="WIyWlLk6GJQsqaUBKTNV-1" source="DycRKEXBZWf3Ip3RqUIx-8" target="DycRKEXBZWf3Ip3RqUIx-26">
          <mxGeometry relative="1" as="geometry">
            <Array as="points" />
          </mxGeometry>
        </mxCell>
        <mxCell id="DycRKEXBZWf3Ip3RqUIx-74" value="" style="curved=1;startArrow=none;endArrow=block;exitX=1;exitY=0.5;entryX=0;entryY=0.5;rounded=0;" edge="1" parent="WIyWlLk6GJQsqaUBKTNV-1" source="DycRKEXBZWf3Ip3RqUIx-26" target="DycRKEXBZWf3Ip3RqUIx-27">
          <mxGeometry relative="1" as="geometry">
            <Array as="points" />
          </mxGeometry>
        </mxCell>
        <mxCell id="DycRKEXBZWf3Ip3RqUIx-75" value="" style="curved=1;startArrow=none;endArrow=block;exitX=1;exitY=0.5;entryX=0;entryY=0.5;rounded=0;" edge="1" parent="WIyWlLk6GJQsqaUBKTNV-1" source="DycRKEXBZWf3Ip3RqUIx-9" target="DycRKEXBZWf3Ip3RqUIx-28">
          <mxGeometry relative="1" as="geometry">
            <Array as="points" />
          </mxGeometry>
        </mxCell>
        <mxCell id="DycRKEXBZWf3Ip3RqUIx-76" value="否" style="curved=1;startArrow=none;endArrow=block;exitX=1;exitY=0.27;entryX=0;entryY=0.5;rounded=0;" edge="1" parent="WIyWlLk6GJQsqaUBKTNV-1" source="DycRKEXBZWf3Ip3RqUIx-28" target="DycRKEXBZWf3Ip3RqUIx-29">
          <mxGeometry relative="1" as="geometry">
            <Array as="points">
              <mxPoint x="1390" y="514" />
            </Array>
          </mxGeometry>
        </mxCell>
        <mxCell id="DycRKEXBZWf3Ip3RqUIx-77" value="是" style="curved=1;startArrow=none;endArrow=block;exitX=0.77;exitY=1;entryX=0;entryY=0.5;rounded=0;" edge="1" parent="WIyWlLk6GJQsqaUBKTNV-1" source="DycRKEXBZWf3Ip3RqUIx-28" target="DycRKEXBZWf3Ip3RqUIx-30">
          <mxGeometry relative="1" as="geometry">
            <Array as="points">
              <mxPoint x="1390" y="760" />
            </Array>
          </mxGeometry>
        </mxCell>
        <mxCell id="DycRKEXBZWf3Ip3RqUIx-78" value="" style="curved=1;startArrow=none;endArrow=block;exitX=1;exitY=0.5;entryX=0;entryY=0.5;rounded=0;" edge="1" parent="WIyWlLk6GJQsqaUBKTNV-1" source="DycRKEXBZWf3Ip3RqUIx-13" target="DycRKEXBZWf3Ip3RqUIx-31">
          <mxGeometry relative="1" as="geometry">
            <Array as="points" />
          </mxGeometry>
        </mxCell>
        <mxCell id="DycRKEXBZWf3Ip3RqUIx-79" value="否" style="curved=1;startArrow=none;endArrow=block;exitX=0.77;exitY=0;entryX=0;entryY=0.5;rounded=0;" edge="1" parent="WIyWlLk6GJQsqaUBKTNV-1" source="DycRKEXBZWf3Ip3RqUIx-31" target="DycRKEXBZWf3Ip3RqUIx-32">
          <mxGeometry relative="1" as="geometry">
            <Array as="points">
              <mxPoint x="1390" y="858" />
            </Array>
          </mxGeometry>
        </mxCell>
        <mxCell id="DycRKEXBZWf3Ip3RqUIx-80" value="是" style="curved=1;startArrow=none;endArrow=block;exitX=0.77;exitY=1;entryX=0;entryY=0.5;rounded=0;" edge="1" parent="WIyWlLk6GJQsqaUBKTNV-1" source="DycRKEXBZWf3Ip3RqUIx-31" target="DycRKEXBZWf3Ip3RqUIx-33">
          <mxGeometry relative="1" as="geometry">
            <Array as="points">
              <mxPoint x="1390" y="1250" />
            </Array>
          </mxGeometry>
        </mxCell>
        <mxCell id="DycRKEXBZWf3Ip3RqUIx-81" value="" style="curved=1;startArrow=none;endArrow=block;exitX=1;exitY=0.49;entryX=0;entryY=0.5;rounded=0;" edge="1" parent="WIyWlLk6GJQsqaUBKTNV-1" source="DycRKEXBZWf3Ip3RqUIx-17" target="DycRKEXBZWf3Ip3RqUIx-34">
          <mxGeometry relative="1" as="geometry">
            <Array as="points" />
          </mxGeometry>
        </mxCell>
        <mxCell id="DycRKEXBZWf3Ip3RqUIx-82" value="否" style="curved=1;startArrow=none;endArrow=block;exitX=0.77;exitY=0;entryX=0;entryY=0.49;rounded=0;" edge="1" parent="WIyWlLk6GJQsqaUBKTNV-1" source="DycRKEXBZWf3Ip3RqUIx-34" target="DycRKEXBZWf3Ip3RqUIx-35">
          <mxGeometry relative="1" as="geometry">
            <Array as="points">
              <mxPoint x="1390" y="1349" />
            </Array>
          </mxGeometry>
        </mxCell>
        <mxCell id="DycRKEXBZWf3Ip3RqUIx-83" value="是" style="curved=1;startArrow=none;endArrow=block;exitX=0.81;exitY=1;entryX=0;entryY=0.49;rounded=0;" edge="1" parent="WIyWlLk6GJQsqaUBKTNV-1" source="DycRKEXBZWf3Ip3RqUIx-34" target="DycRKEXBZWf3Ip3RqUIx-36">
          <mxGeometry relative="1" as="geometry">
            <Array as="points">
              <mxPoint x="1390" y="1717" />
            </Array>
          </mxGeometry>
        </mxCell>
        <mxCell id="DycRKEXBZWf3Ip3RqUIx-84" value="" style="curved=1;startArrow=none;endArrow=block;exitX=1;exitY=0.5;entryX=0;entryY=0.5;rounded=0;" edge="1" parent="WIyWlLk6GJQsqaUBKTNV-1" source="DycRKEXBZWf3Ip3RqUIx-10" target="DycRKEXBZWf3Ip3RqUIx-37">
          <mxGeometry relative="1" as="geometry">
            <Array as="points" />
          </mxGeometry>
        </mxCell>
        <mxCell id="DycRKEXBZWf3Ip3RqUIx-85" value="" style="curved=1;startArrow=none;endArrow=block;exitX=1;exitY=0.49;entryX=0;entryY=0.49;rounded=0;" edge="1" parent="WIyWlLk6GJQsqaUBKTNV-1" source="DycRKEXBZWf3Ip3RqUIx-11" target="DycRKEXBZWf3Ip3RqUIx-38">
          <mxGeometry relative="1" as="geometry">
            <Array as="points" />
          </mxGeometry>
        </mxCell>
        <mxCell id="DycRKEXBZWf3Ip3RqUIx-86" value="" style="curved=1;startArrow=none;endArrow=block;exitX=1;exitY=0.5;entryX=0;entryY=0.5;rounded=0;" edge="1" parent="WIyWlLk6GJQsqaUBKTNV-1" source="DycRKEXBZWf3Ip3RqUIx-12" target="DycRKEXBZWf3Ip3RqUIx-39">
          <mxGeometry relative="1" as="geometry">
            <Array as="points" />
          </mxGeometry>
        </mxCell>
        <mxCell id="DycRKEXBZWf3Ip3RqUIx-87" value="" style="curved=1;startArrow=none;endArrow=block;exitX=1;exitY=0.49;entryX=0;entryY=0.49;rounded=0;" edge="1" parent="WIyWlLk6GJQsqaUBKTNV-1" source="DycRKEXBZWf3Ip3RqUIx-14" target="DycRKEXBZWf3Ip3RqUIx-40">
          <mxGeometry relative="1" as="geometry">
            <Array as="points" />
          </mxGeometry>
        </mxCell>
        <mxCell id="DycRKEXBZWf3Ip3RqUIx-88" value="" style="curved=1;startArrow=none;endArrow=block;exitX=1;exitY=0.5;entryX=0;entryY=0.5;rounded=0;" edge="1" parent="WIyWlLk6GJQsqaUBKTNV-1" source="DycRKEXBZWf3Ip3RqUIx-15" target="DycRKEXBZWf3Ip3RqUIx-41">
          <mxGeometry relative="1" as="geometry">
            <Array as="points" />
          </mxGeometry>
        </mxCell>
        <mxCell id="DycRKEXBZWf3Ip3RqUIx-89" value="" style="curved=1;startArrow=none;endArrow=block;exitX=1;exitY=0.5;entryX=0;entryY=0.5;rounded=0;" edge="1" parent="WIyWlLk6GJQsqaUBKTNV-1" source="DycRKEXBZWf3Ip3RqUIx-16" target="DycRKEXBZWf3Ip3RqUIx-42">
          <mxGeometry relative="1" as="geometry">
            <Array as="points" />
          </mxGeometry>
        </mxCell>
        <mxCell id="DycRKEXBZWf3Ip3RqUIx-90" value="" style="curved=1;startArrow=none;endArrow=block;exitX=1;exitY=0.5;entryX=0;entryY=0.5;rounded=0;" edge="1" parent="WIyWlLk6GJQsqaUBKTNV-1" source="DycRKEXBZWf3Ip3RqUIx-18" target="DycRKEXBZWf3Ip3RqUIx-43">
          <mxGeometry relative="1" as="geometry">
            <Array as="points" />
          </mxGeometry>
        </mxCell>
        <mxCell id="DycRKEXBZWf3Ip3RqUIx-91" value="" style="curved=1;startArrow=none;endArrow=block;exitX=1;exitY=0.5;entryX=0;entryY=0.5;rounded=0;" edge="1" parent="WIyWlLk6GJQsqaUBKTNV-1" source="DycRKEXBZWf3Ip3RqUIx-19" target="DycRKEXBZWf3Ip3RqUIx-44">
          <mxGeometry relative="1" as="geometry">
            <Array as="points" />
          </mxGeometry>
        </mxCell>
        <mxCell id="DycRKEXBZWf3Ip3RqUIx-92" value="" style="curved=1;startArrow=none;endArrow=block;exitX=1;exitY=0.49;entryX=0;entryY=0.49;rounded=0;" edge="1" parent="WIyWlLk6GJQsqaUBKTNV-1" source="DycRKEXBZWf3Ip3RqUIx-20" target="DycRKEXBZWf3Ip3RqUIx-45">
          <mxGeometry relative="1" as="geometry">
            <Array as="points" />
          </mxGeometry>
        </mxCell>
      </root>
    </mxGraphModel>
  </diagram>
</mxfile>
